{
  "accessors": [
    {
      "bufferView": 0,
      "componentType": 5125,
      "count": 12762,
      "type": "SCALAR"
    },
    {
      "bufferView": 1,
      "componentType": 5126,
      "count": 4939,
      "max": [
        32.6398582458496,
        32.9428024291992,
        20.4223747253418
      ],
      "min": [
        -32.6398620605469,
        0.507482528686523,
        -20.8436546325684
      ],
      "type": "VEC3"
    },
    {
      "bufferView": 2,
      "componentType": 5126,
      "count": 4939,
      "type": "VEC3"
    },
    {
      "bufferView": 3,
      "componentType": 5126,
      "count": 4939,
      "type": "VEC4"
    },
    {
      "bufferView": 4,
      "componentType": 5126,
      "count": 4939,
      "type": "VEC2"
    },
    {
      "bufferView": 5,
      "componentType": 5125,
      "count": 3120,
      "type": "SCALAR"
    },
    {
      "bufferView": 6,
      "componentType": 5126,
      "count": 1135,
      "max": [
        32.4705810546875,
        43.1628494262695,
        20.0000019073486
      ],
      "min": [
        -32.6708984375,
        32.4813613891602,
        -20.7688770294189
      ],
      "type": "VEC3"
    },
    {
      "bufferView": 7,
      "componentType": 5126,
      "count": 1135,
      "type": "VEC3"
    },
    {
      "bufferView": 8,
      "componentType": 5126,
      "count": 1135,
      "type": "VEC4"
    },
    {
      "bufferView": 9,
      "componentType": 5126,
      "count": 1135,
      "type": "VEC2"
    },
    {
      "bufferView": 10,
      "componentType": 5125,
      "count": 2352,
      "type": "SCALAR"
    },
    {
      "bufferView": 11,
      "componentType": 5126,
      "count": 910,
      "max": [
        -25.4977931976318,
        44.1628494262695,
        6.65222692489624
      ],
      "min": [
        -33.8709030151367,
        24.6667709350586,
        -6.6522274017334
      ],
      "type": "VEC3"
    },
    {
      "bufferView": 12,
      "componentType": 5126,
      "count": 910,
      "type": "VEC3"
    },
    {
      "bufferView": 13,
      "componentType": 5126,
      "count": 910,
      "type": "VEC4"
    },
    {
      "bufferView": 14,
      "componentType": 5126,
      "count": 910,
      "type": "VEC2"
    },
    {
      "bufferView": 15,
      "componentType": 5125,
      "count": 2352,
      "type": "SCALAR"
    },
    {
      "bufferView": 16,
      "componentType": 5126,
      "count": 910,
      "max": [
        33.849235534668,
        44.1628494262695,
        6.65222692489624
      ],
      "min": [
        25.4761276245117,
        24.6667709350586,
        -6.6522274017334
      ],
      "type": "VEC3"
    },
    {
      "bufferView": 17,
      "componentType": 5126,
      "count": 910,
      "type": "VEC3"
    },
    {
      "bufferView": 18,
      "componentType": 5126,
      "count": 910,
      "type": "VEC4"
    },
    {
      "bufferView": 19,
      "componentType": 5126,
      "count": 910,
      "type": "VEC2"
    }
  ],
  "asset": {
    "generator": "Adobe Substance 3D Painter 8.1.2",
    "version": "2.0"
  },
  "bufferViews": [
    {
      "buffer": 0,
      "byteLength": 51048,
      "target": 34963
    },
    {
      "buffer": 0,
      "byteLength": 59268,
      "byteOffset": 51048,
      "target": 34962
    },
    {
      "buffer": 0,
      "byteLength": 59268,
      "byteOffset": 110316,
      "target": 34962
    },
    {
      "buffer": 0,
      "byteLength": 79024,
      "byteOffset": 169584,
      "target": 34962
    },
    {
      "buffer": 0,
      "byteLength": 39512,
      "byteOffset": 248608,
      "target": 34962
    },
    {
      "buffer": 0,
      "byteLength": 12480,
      "byteOffset": 288120,
      "target": 34963
    },
    {
      "buffer": 0,
      "byteLength": 13620,
      "byteOffset": 300600,
      "target": 34962
    },
    {
      "buffer": 0,
      "byteLength": 13620,
      "byteOffset": 314220,
      "target": 34962
    },
    {
      "buffer": 0,
      "byteLength": 18160,
      "byteOffset": 327840,
      "target": 34962
    },
    {
      "buffer": 0,
      "byteLength": 9080,
      "byteOffset": 346000,
      "target": 34962
    },
    {
      "buffer": 0,
      "byteLength": 9408,
      "byteOffset": 355080,
      "target": 34963
    },
    {
      "buffer": 0,
      "byteLength": 10920,
      "byteOffset": 364488,
      "target": 34962
    },
    {
      "buffer": 0,
      "byteLength": 10920,
      "byteOffset": 375408,
      "target": 34962
    },
    {
      "buffer": 0,
      "byteLength": 14560,
      "byteOffset": 386328,
      "target": 34962
    },
    {
      "buffer": 0,
      "byteLength": 7280,
      "byteOffset": 400888,
      "target": 34962
    },
    {
      "buffer": 0,
      "byteLength": 9408,
      "byteOffset": 408168,
      "target": 34963
    },
    {
      "buffer": 0,
      "byteLength": 10920,
      "byteOffset": 417576,
      "target": 34962
    },
    {
      "buffer": 0,
      "byteLength": 10920,
      "byteOffset": 428496,
      "target": 34962
    },
    {
      "buffer": 0,
      "byteLength": 14560,
      "byteOffset": 439416,
      "target": 34962
    },
    {
      "buffer": 0,
      "byteLength": 7280,
      "byteOffset": 453976,
      "target": 34962
    }
  ],
  "buffers": [
    {
      "byteLength": 461256,
      "uri": "Futuristic_Chest_1.bin"
    }
  ],
  "images": [
    {
      "uri": "TX_Futurist_Chest_baseColor.png"
    },
    {
      "uri": "TX_Futurist_Chest_occlusionRoughnessMetallic.png"
    },
    {
      "uri": "TX_Futurist_Chest_normal.png"
    },
    {
      "uri": "TX_Futurist_Chest_emissive.png"
    }
  ],
  "materials": [
    {
      "alphaMode": "OPAQUE",
      "emissiveFactor": [
        1.0,
        1.0,
        1.0
      ],
      "emissiveTexture": {
        "index": 3
      },
      "name": "TX_Futurist_Chest",
      "normalTexture": {
        "index": 2
      },
      "occlusionTexture": {
        "index": 1
      },
      "pbrMetallicRoughness": {
        "baseColorTexture": {
          "index": 0
        },
        "metallicRoughnessTexture": {
          "index": 1
        }
      }
    }
  ],
  "meshes": [
    {
      "name": "Futurist_Chest_1",
      "primitives": [
        {
          "attributes": {
            "NORMAL": 2,
            "POSITION": 1,
            "TANGENT": 3,
            "TEXCOORD_0": 4
          },
          "indices": 0,
          "material": 0,
          "mode": 4
        }
      ]
    },
    {
      "name": "Futurist_Chest_1_1",
      "primitives": [
        {
          "attributes": {
            "NORMAL": 7,
            "POSITION": 6,
            "TANGENT": 8,
            "TEXCOORD_0": 9
          },
          "indices": 5,
          "material": 0,
          "mode": 4
        }
      ]
    },
    {
      "name": "Futurist_Chest_1_2",
      "primitives": [
        {
          "attributes": {
            "NORMAL": 12,
            "POSITION": 11,
            "TANGENT": 13,
            "TEXCOORD_0": 14
          },
          "indices": 10,
          "material": 0,
          "mode": 4
        }
      ]
    },
    {
      "name": "Futurist_Chest_1_3",
      "primitives": [
        {
          "attributes": {
            "NORMAL": 17,
            "POSITION": 16,
            "TANGENT": 18,
            "TEXCOORD_0": 19
          },
          "indices": 15,
          "material": 0,
          "mode": 4
        }
      ]
    }
  ],
  "nodes": [
    {
      "children": [
        1,
        3,
        5,
        7
      ],
      "name": "RootNode"
    },
    {
      "children": [
        2
      ],
      "name": "Futurist_Chest_1",
      "scale": [
        0.00999999977648258,
        0.00999999977648258,
        0.00999999977648258
      ],
      "translation": [
        0.0,
        -3.5527136788005e-15,
        0.0
      ]
    },
    {
      "mesh": 0,
      "name": "Futurist_Chest_1"
    },
    {
      "children": [
        4
      ],
      "name": "Futurist_Chest_1_1",
      "scale": [
        0.00999999977648258,
        0.00999999977648258,
        0.00999999977648258
      ],
      "translation": [
        1.38777878078145e-17,
        0.0,
        0.0
      ]
    },
    {
      "mesh": 1,
      "name": "Futurist_Chest_1_1"
    },
    {
      "children": [
        6
      ],
      "name": "Futurist_Chest_1_2",
      "scale": [
        0.00999999977648258,
        0.00999999977648258,
        0.00999999977648258
      ],
      "translation": [
        3.5527136788005e-15,
        0.0,
        0.0
      ]
    },
    {
      "mesh": 2,
      "name": "Futurist_Chest_1_2"
    },
    {
      "children": [
        8
      ],
      "name": "Futurist_Chest_1_3",
      "scale": [
        0.00999999977648258,
        0.00999999977648258,
        0.00999999977648258
      ],
      "translation": [
        -3.5527136788005e-15,
        0.0,
        0.0
      ]
    },
    {
      "mesh": 3,
      "name": "Futurist_Chest_1_3"
    }
  ],
  "samplers": [
    {
      "magFilter": 9729,
      "minFilter": 9985,
      "wrapS": 10497,
      "wrapT": 10497
    }
  ],
  "scene": 0,
  "scenes": [
    {
      "name": "Scene",
      "nodes": [
        0
      ]
    }
  ],
  "textures": [
    {
      "sampler": 0,
      "source": 0
    },
    {
      "sampler": 0,
      "source": 1
    },
    {
      "sampler": 0,
      "source": 2
    },
    {
      "sampler": 0,
      "source": 3
    }
  ]
}