{
	"asset":{
		"version":"2.0",
		"generator":"Created using the official Cinema 4D glTF Exporter 1.000x284978"
	},
	"nodes":[{
		"name":"Cube.6",
		"mesh":0,
		"scale":[1.0,
		1.0,
		1.0],
		"translation":[-12.051935195922852,
		13.19628620147705,
		-1248.067626953125],
		"rotation":[0.0,
		-0.7071067690849304,
		0.0,
		-0.7071067690849304]
	},
	{
		"name":"Extrude.1",
		"mesh":1,
		"scale":[1.0,
		1.0,
		1.0],
		"translation":[157.52455139160157,
		13.263550758361817,
		29.116552352905275],
		"rotation":[0.5,
		0.5,
		0.5,
		-0.5]
	},
	{
		"name":"Cube.5",
		"mesh":2,
		"scale":[1.0,
		1.0,
		1.0],
		"translation":[0.0,
		58.75331115722656,
		0.0],
		"rotation":[0.0,
		0.0,
		0.0,
		-1.0]
	},
	{
		"name":"Extrude",
		"mesh":3,
		"scale":[1.0,
		1.0,
		1.0],
		"translation":[-33.61805725097656,
		-12.263707160949707,
		36.86960220336914],
		"rotation":[0.5,
		0.5,
		0.5,
		-0.5]
	},
	{
		"name":"Cube.4",
		"mesh":4,
		"scale":[1.0,
		1.0,
		1.0],
		"translation":[-12.051935195922852,
		13.19628620147705,
		267.12103271484377],
		"rotation":[0.0,
		-0.7071067690849304,
		0.0,
		-0.7071067690849304]
	},
	{
		"name":"Cube.3",
		"mesh":5,
		"scale":[1.0,
		1.0,
		1.0],
		"translation":[-336.44097900390627,
		58.75331115722656,
		0.0],
		"rotation":[0.0,
		0.0,
		0.0,
		-1.0]
	},
	{
		"name":"Cube.2",
		"mesh":6,
		"scale":[1.0,
		1.0,
		1.0],
		"translation":[180.70809936523438,
		58.75331115722656,
		0.0],
		"rotation":[0.0,
		0.0,
		0.0,
		-1.0]
	},
	{
		"name":"Cube.1",
		"mesh":7,
		"scale":[1.0,
		1.0,
		1.0],
		"translation":[0.0,
		58.75331115722656,
		0.0],
		"rotation":[0.0,
		0.0,
		0.0,
		-1.0]
	},
	{
		"name":"Cube",
		"mesh":8,
		"scale":[1.0,
		1.0,
		1.0],
		"translation":[-72.08737182617188,
		-0.457561194896698,
		72.31587982177735],
		"rotation":[0.0,
		0.0,
		0.0,
		-1.0]
	}],
	"scenes":[{
		"nodes":[0,
		1,
		2,
		3,
		4,
		5,
		6,
		7,
		8]
	}],
	"meshes":[{
		"name":"Cube.6",
		"primitives":[{
			"attributes":{
				"POSITION":1,
				"NORMAL":2,
				"TEXCOORD_0":3
			},
			"indices":0
		}]
	},
	{
		"name":"Extrude.1",
		"primitives":[{
			"attributes":{
				"POSITION":5,
				"NORMAL":6,
				"TEXCOORD_0":7
			},
			"indices":4
		}]
	},
	{
		"name":"Cube.5",
		"primitives":[{
			"attributes":{
				"POSITION":9,
				"NORMAL":10,
				"TEXCOORD_0":11
			},
			"indices":8
		}]
	},
	{
		"name":"Extrude",
		"primitives":[{
			"attributes":{
				"POSITION":13,
				"NORMAL":14,
				"TEXCOORD_0":15
			},
			"indices":12
		}]
	},
	{
		"name":"Cube.4",
		"primitives":[{
			"attributes":{
				"POSITION":17,
				"NORMAL":18,
				"TEXCOORD_0":19
			},
			"indices":16
		}]
	},
	{
		"name":"Cube.3",
		"primitives":[{
			"attributes":{
				"POSITION":21,
				"NORMAL":22,
				"TEXCOORD_0":23
			},
			"indices":20
		}]
	},
	{
		"name":"Cube.2",
		"primitives":[{
			"attributes":{
				"POSITION":25,
				"NORMAL":26,
				"TEXCOORD_0":27
			},
			"indices":24
		}]
	},
	{
		"name":"Cube.1",
		"primitives":[{
			"attributes":{
				"POSITION":29,
				"NORMAL":30,
				"TEXCOORD_0":31
			},
			"indices":28
		}]
	},
	{
		"name":"Cube",
		"primitives":[{
			"attributes":{
				"POSITION":33,
				"NORMAL":34,
				"TEXCOORD_0":35
			},
			"indices":32
		}]
	}],
	"accessors":[{
		"max":[23],
		"bufferView":0,
		"type":"SCALAR",
		"min":[0],
		"count":36,
		"componentType":5123,
		"byteOffset":0
	},
	{
		"max":[450.6693420410156,
		56.47099685668945,
		463.5436706542969],
		"bufferView":1,
		"type":"VEC3",
		"min":[-450.6693420410156,
		-56.47099685668945,
		-463.5436706542969],
		"count":24,
		"componentType":5126,
		"byteOffset":0
	},
	{
		"max":[1.0,
		1.0,
		1.0],
		"bufferView":1,
		"type":"VEC3",
		"min":[-1.0,
		-1.0,
		-1.0],
		"count":24,
		"componentType":5126,
		"byteOffset":12
	},
	{
		"max":[1.0,
		1.0],
		"bufferView":1,
		"type":"VEC2",
		"min":[0.0,
		0.0],
		"count":24,
		"componentType":5126,
		"byteOffset":24
	},
	{
		"max":[491],
		"bufferView":2,
		"type":"SCALAR",
		"min":[0],
		"count":1236,
		"componentType":5123,
		"byteOffset":0
	},
	{
		"max":[36.8790283203125,
		47.48340606689453,
		115.42030334472656],
		"bufferView":3,
		"type":"VEC3",
		"min":[-66.05853271484375,
		12.737248420715332,
		104.6030044555664],
		"count":492,
		"componentType":5126,
		"byteOffset":0
	},
	{
		"max":[1.0,
		1.0,
		1.0],
		"bufferView":3,
		"type":"VEC3",
		"min":[-1.0,
		-1.0,
		-1.0],
		"count":492,
		"componentType":5126,
		"byteOffset":12
	},
	{
		"max":[1.0,
		1.0],
		"bufferView":3,
		"type":"VEC2",
		"min":[0.0,
		0.0],
		"count":492,
		"componentType":5126,
		"byteOffset":24
	},
	{
		"max":[23],
		"bufferView":4,
		"type":"SCALAR",
		"min":[0],
		"count":36,
		"componentType":5123,
		"byteOffset":0
	},
	{
		"max":[43.87942886352539,
		58.910911560058597,
		118.75772094726563],
		"bufferView":5,
		"type":"VEC3",
		"min":[-43.87942886352539,
		-58.910911560058597,
		-118.75772094726563],
		"count":24,
		"componentType":5126,
		"byteOffset":0
	},
	{
		"max":[1.0,
		1.0,
		1.0],
		"bufferView":5,
		"type":"VEC3",
		"min":[-1.0,
		-1.0,
		-1.0],
		"count":24,
		"componentType":5126,
		"byteOffset":12
	},
	{
		"max":[1.0,
		1.0],
		"bufferView":5,
		"type":"VEC2",
		"min":[0.0,
		0.0],
		"count":24,
		"componentType":5126,
		"byteOffset":24
	},
	{
		"max":[2529],
		"bufferView":6,
		"type":"SCALAR",
		"min":[0],
		"count":7284,
		"componentType":5123,
		"byteOffset":0
	},
	{
		"max":[71.21984100341797,
		58.1976318359375,
		138.7002716064453],
		"bufferView":7,
		"type":"VEC3",
		"min":[-130.53135681152345,
		14.084100723266602,
		125.70115661621094],
		"count":2530,
		"componentType":5126,
		"byteOffset":0
	},
	{
		"max":[1.0,
		1.0,
		1.0],
		"bufferView":7,
		"type":"VEC3",
		"min":[-1.0,
		-1.0,
		-1.0],
		"count":2530,
		"componentType":5126,
		"byteOffset":12
	},
	{
		"max":[1.0,
		1.0],
		"bufferView":7,
		"type":"VEC2",
		"min":[0.0,
		0.0],
		"count":2530,
		"componentType":5126,
		"byteOffset":24
	},
	{
		"max":[23],
		"bufferView":8,
		"type":"SCALAR",
		"min":[0],
		"count":36,
		"componentType":5123,
		"byteOffset":0
	},
	{
		"max":[43.87942886352539,
		56.47099685668945,
		100.0],
		"bufferView":9,
		"type":"VEC3",
		"min":[-43.87942886352539,
		-56.47099685668945,
		-100.0],
		"count":24,
		"componentType":5126,
		"byteOffset":0
	},
	{
		"max":[1.0,
		1.0,
		1.0],
		"bufferView":9,
		"type":"VEC3",
		"min":[-1.0,
		-1.0,
		-1.0],
		"count":24,
		"componentType":5126,
		"byteOffset":12
	},
	{
		"max":[1.0,
		1.0],
		"bufferView":9,
		"type":"VEC2",
		"min":[0.0,
		0.0],
		"count":24,
		"componentType":5126,
		"byteOffset":24
	},
	{
		"max":[23],
		"bufferView":10,
		"type":"SCALAR",
		"min":[0],
		"count":36,
		"componentType":5123,
		"byteOffset":0
	},
	{
		"max":[43.87942886352539,
		58.910911560058597,
		100.0],
		"bufferView":11,
		"type":"VEC3",
		"min":[-43.87942886352539,
		-58.910911560058597,
		-100.0],
		"count":24,
		"componentType":5126,
		"byteOffset":0
	},
	{
		"max":[1.0,
		1.0,
		1.0],
		"bufferView":11,
		"type":"VEC3",
		"min":[-1.0,
		-1.0,
		-1.0],
		"count":24,
		"componentType":5126,
		"byteOffset":12
	},
	{
		"max":[1.0,
		1.0],
		"bufferView":11,
		"type":"VEC2",
		"min":[0.0,
		0.0],
		"count":24,
		"componentType":5126,
		"byteOffset":24
	},
	{
		"max":[23],
		"bufferView":12,
		"type":"SCALAR",
		"min":[0],
		"count":36,
		"componentType":5123,
		"byteOffset":0
	},
	{
		"max":[43.87942886352539,
		58.910911560058597,
		100.0],
		"bufferView":13,
		"type":"VEC3",
		"min":[-43.87942886352539,
		-58.910911560058597,
		-100.0],
		"count":24,
		"componentType":5126,
		"byteOffset":0
	},
	{
		"max":[1.0,
		1.0,
		1.0],
		"bufferView":13,
		"type":"VEC3",
		"min":[-1.0,
		-1.0,
		-1.0],
		"count":24,
		"componentType":5126,
		"byteOffset":12
	},
	{
		"max":[1.0,
		1.0],
		"bufferView":13,
		"type":"VEC2",
		"min":[0.0,
		0.0],
		"count":24,
		"componentType":5126,
		"byteOffset":24
	},
	{
		"max":[23],
		"bufferView":14,
		"type":"SCALAR",
		"min":[0],
		"count":36,
		"componentType":5123,
		"byteOffset":0
	},
	{
		"max":[43.87942886352539,
		58.910911560058597,
		118.75772094726563],
		"bufferView":15,
		"type":"VEC3",
		"min":[-43.87942886352539,
		-58.910911560058597,
		-118.75772094726563],
		"count":24,
		"componentType":5126,
		"byteOffset":0
	},
	{
		"max":[1.0,
		1.0,
		1.0],
		"bufferView":15,
		"type":"VEC3",
		"min":[-1.0,
		-1.0,
		-1.0],
		"count":24,
		"componentType":5126,
		"byteOffset":12
	},
	{
		"max":[1.0,
		1.0],
		"bufferView":15,
		"type":"VEC2",
		"min":[0.0,
		0.0],
		"count":24,
		"componentType":5126,
		"byteOffset":24
	},
	{
		"max":[23],
		"bufferView":16,
		"type":"SCALAR",
		"min":[0],
		"count":36,
		"componentType":5123,
		"byteOffset":0
	},
	{
		"max":[535.333251953125,
		3.46980357170105,
		418.5303955078125],
		"bufferView":17,
		"type":"VEC3",
		"min":[-535.333251953125,
		-3.46980357170105,
		-418.5303955078125],
		"count":24,
		"componentType":5126,
		"byteOffset":0
	},
	{
		"max":[1.0,
		1.0,
		1.0],
		"bufferView":17,
		"type":"VEC3",
		"min":[-1.0,
		-1.0,
		-1.0],
		"count":24,
		"componentType":5126,
		"byteOffset":12
	},
	{
		"max":[1.0,
		1.0],
		"bufferView":17,
		"type":"VEC2",
		"min":[0.0,
		0.0],
		"count":24,
		"componentType":5126,
		"byteOffset":24
	}],
	"bufferViews":[{
		"buffer":0,
		"byteOffset":0,
		"byteLength":72,
		"target":34963
	},
	{
		"buffer":0,
		"byteOffset":72,
		"byteLength":768,
		"target":34962,
		"byteStride":32
	},
	{
		"buffer":1,
		"byteOffset":0,
		"byteLength":2472,
		"target":34963
	},
	{
		"buffer":1,
		"byteOffset":2472,
		"byteLength":15744,
		"target":34962,
		"byteStride":32
	},
	{
		"buffer":2,
		"byteOffset":0,
		"byteLength":72,
		"target":34963
	},
	{
		"buffer":2,
		"byteOffset":72,
		"byteLength":768,
		"target":34962,
		"byteStride":32
	},
	{
		"buffer":3,
		"byteOffset":0,
		"byteLength":14568,
		"target":34963
	},
	{
		"buffer":3,
		"byteOffset":14568,
		"byteLength":80960,
		"target":34962,
		"byteStride":32
	},
	{
		"buffer":4,
		"byteOffset":0,
		"byteLength":72,
		"target":34963
	},
	{
		"buffer":4,
		"byteOffset":72,
		"byteLength":768,
		"target":34962,
		"byteStride":32
	},
	{
		"buffer":5,
		"byteOffset":0,
		"byteLength":72,
		"target":34963
	},
	{
		"buffer":5,
		"byteOffset":72,
		"byteLength":768,
		"target":34962,
		"byteStride":32
	},
	{
		"buffer":6,
		"byteOffset":0,
		"byteLength":72,
		"target":34963
	},
	{
		"buffer":6,
		"byteOffset":72,
		"byteLength":768,
		"target":34962,
		"byteStride":32
	},
	{
		"buffer":7,
		"byteOffset":0,
		"byteLength":72,
		"target":34963
	},
	{
		"buffer":7,
		"byteOffset":72,
		"byteLength":768,
		"target":34962,
		"byteStride":32
	},
	{
		"buffer":8,
		"byteOffset":0,
		"byteLength":72,
		"target":34963
	},
	{
		"buffer":8,
		"byteOffset":72,
		"byteLength":768,
		"target":34962,
		"byteStride":32
	}],
	"buffers":[{
		"uri":"data:application/octet-stream;base64,",
		"byteLength":840
	},
	{
		"uri":"data:application/octet-stream;base64,",
		"byteLength":18216
	},
	{
		"uri":"data:application/octet-stream;base64,",
		"byteLength":840
	},
	{
		"uri":"data:application/octet-stream;base64,",
		"byteLength":95528
	},
	{
		"uri":"data:application/octet-stream;base64,",
		"byteLength":840
	},
	{
		"uri":"data:application/octet-stream;base64,",
		"byteLength":840
	},
	{
		"uri":"data:application/octet-stream;base64,",
		"byteLength":840
	},
	{
		"uri":"data:application/octet-stream;base64,",
		"byteLength":840
	},
	{
		"uri":"data:application/octet-stream;base64,",
		"byteLength":840
	}]
}
